<?xml version="1.0" standalone="no"?>
<!DOCTYPE svg PUBLIC "-//W3C//DTD SVG 20010904//EN"
 "http://www.w3.org/TR/2001/REC-SVG-20010904/DTD/svg10.dtd">
<svg version="1.0" xmlns="http://www.w3.org/2000/svg"
 width="1280.000000pt" height="720.000000pt" viewBox="0 0 1280.000000 720.000000"
 preserveAspectRatio="xMidYMid meet">
<metadata>
Created by potrace 1.16, written by Peter Selinger 2001-2019
</metadata>
<g transform="translate(0.000000,720.000000) scale(0.100000,-0.100000)"
fill="#000000" stroke="none">
<path d="M3233 6616 c-99 -31 -191 -110 -240 -206 l-28 -55 0 -2135 0 -2135
26 -55 c41 -85 99 -144 187 -187 l76 -38 1053 -5 1053 -5 -271 -270 c-148
-148 -277 -282 -285 -297 -11 -21 -14 -78 -14 -272 l0 -245 34 -35 33 -36
1105 0 1105 0 28 22 c49 39 55 68 55 295 0 115 -5 224 -10 243 -8 26 -79 104
-292 317 l-283 283 1030 0 c643 0 1046 4 1073 10 110 26 208 100 260 198 l32
60 0 2148 0 2149 -25 53 c-32 68 -105 141 -180 178 l-60 29 -2710 2 c-2221 1
-2718 -1 -2752 -11z m5386 -264 c19 -9 44 -30 55 -45 l21 -28 3 -1780 2 -1779
-2740 0 -2740 0 2 1779 3 1780 21 28 c11 15 36 36 55 45 32 17 180 18 2659 18
2479 0 2627 -1 2659 -18z m71 -4052 l0 -150 -34 -38 -34 -37 -2652 -3 c-2648
-2 -2653 -2 -2685 18 -52 32 -65 79 -65 230 l0 130 2735 0 2735 0 0 -150z
m-2173 -852 l353 -353 0 -97 0 -98 -910 0 -910 0 0 97 0 98 352 352 353 353
205 0 205 0 352 -352z"/>
<path d="M6053 5984 c-18 -9 -41 -31 -52 -48 -25 -41 -91 -282 -91 -333 0 -54
25 -122 57 -155 l27 -28 -33 0 c-60 0 -113 -23 -166 -72 l-53 -48 -169 0
c-152 0 -172 -2 -186 -18 -23 -25 -21 -65 4 -88 18 -16 40 -19 160 -22 l139
-4 0 -67 c0 -80 32 -155 87 -200 l34 -28 -25 -7 c-15 -4 -28 -16 -31 -29 -4
-13 -19 -31 -35 -41 -17 -9 -42 -38 -57 -64 -24 -41 -28 -57 -28 -127 0 -95
25 -152 80 -188 21 -13 35 -30 35 -43 0 -37 34 -58 82 -50 36 6 40 5 27 -6
-18 -14 -291 -430 -310 -472 -10 -20 -9 -30 5 -51 21 -32 38 -39 71 -31 20 5
60 59 172 229 80 122 150 232 156 244 14 32 1 70 -31 87 -20 11 -22 15 -9 16
11 0 24 13 32 33 7 17 30 48 50 67 46 45 70 121 61 197 -8 68 -24 100 -76 149
-22 21 -40 42 -40 46 0 4 13 8 28 8 45 0 115 28 156 62 57 46 116 174 116 249
0 63 -18 124 -51 168 -23 32 -19 51 12 51 34 0 95 37 132 80 28 33 42 67 72
173 58 201 52 256 -35 315 -77 52 -255 78 -317 46z m193 -134 c32 -11 62 -24
67 -29 9 -9 -46 -229 -69 -272 -7 -15 -30 -34 -50 -44 -31 -15 -43 -15 -76 -6
-43 13 -78 58 -78 101 0 20 47 204 65 258 7 18 74 15 141 -8z m-184 -587 c55
-49 62 -122 20 -198 -48 -88 -128 -118 -199 -75 -72 44 -86 120 -38 208 33 61
43 70 91 87 43 15 96 5 126 -22z m-165 -577 c25 -21 28 -31 28 -81 0 -50 -3
-60 -28 -81 -38 -32 -72 -31 -108 5 -24 24 -29 38 -29 76 0 38 5 52 29 76 36
36 70 37 108 5z"/>
<path d="M5263 5232 c-33 -33 -253 -419 -253 -444 0 -59 83 -80 118 -30 54 78
242 412 242 431 0 50 -72 80 -107 43z"/>
<path d="M6277 5162 c-36 -40 -24 -61 154 -263 94 -107 182 -204 195 -216 33
-30 59 -29 90 3 20 19 24 31 19 51 -3 14 -90 120 -192 234 -169 191 -188 209
-218 209 -18 0 -39 -8 -48 -18z"/>
<path d="M6976 4793 c-200 -15 -216 -21 -216 -79 0 -24 7 -38 23 -48 20 -14
50 -13 275 3 161 12 257 23 267 31 20 16 19 74 -1 94 -19 20 -92 19 -348 -1z"/>
<path d="M6006 4339 c-32 -25 -34 -60 -3 -93 12 -13 111 -97 220 -185 165
-134 203 -161 230 -161 43 0 57 15 57 60 0 36 -6 42 -208 207 -199 163 -239
193 -260 193 -5 0 -21 -9 -36 -21z"/>
<path d="M6507 3893 c-23 -6 -28 -18 -147 -301 -86 -206 -99 -244 -90 -266 12
-32 51 -49 84 -36 19 7 41 50 114 222 105 248 132 315 132 329 0 15 -47 59
-62 58 -7 -1 -21 -3 -31 -6z"/>
<path d="M5230 3702 c-182 -79 -227 -102 -240 -125 -13 -24 -13 -30 0 -54 27
-49 56 -43 301 62 123 53 230 104 237 113 31 40 1 102 -49 102 -13 0 -125 -44
-249 -98z"/>
<path d="M4876 3534 c-9 -8 -16 -28 -16 -44 0 -25 118 -295 143 -327 5 -7 26
-13 46 -13 83 0 81 45 -10 236 -38 82 -75 152 -82 156 -20 13 -65 9 -81 -8z"/>
<path d="M6190 3270 c-23 -23 -26 -58 -7 -83 14 -19 359 -147 397 -147 33 0
60 28 60 61 0 47 2 46 -241 134 -83 30 -160 55 -170 55 -11 0 -28 -9 -39 -20z"/>
</g>
</svg>
