<?xml version="1.0" standalone="no"?>
<!DOCTYPE svg PUBLIC "-//W3C//DTD SVG 20010904//EN"
 "http://www.w3.org/TR/2001/REC-SVG-20010904/DTD/svg10.dtd">
<svg version="1.0" xmlns="http://www.w3.org/2000/svg"
 width="1280.000000pt" height="720.000000pt" viewBox="0 0 1280.000000 720.000000"
 preserveAspectRatio="xMidYMid meet">
<metadata>
Created by potrace 1.16, written by Peter Selinger 2001-2019
</metadata>
<g transform="translate(0.000000,720.000000) scale(0.100000,-0.100000)"
fill="#000000" stroke="none">
<path d="M4413 6519 c-64 -25 -131 -88 -163 -154 l-25 -50 -3 -2312 -2 -2312
21 -58 c28 -73 104 -152 174 -179 48 -18 92 -19 1229 -22 1291 -3 1250 -4
1339 56 23 15 56 46 74 70 60 79 63 105 63 521 l1 376 634 284 635 284 0 844
c0 464 -3 842 -7 840 -5 -3 -95 -44 -201 -91 -106 -48 -386 -174 -622 -281
-236 -107 -432 -195 -435 -195 -3 0 -5 46 -5 103 l1 102 357 159 c196 88 402
180 457 206 55 26 160 73 233 105 73 32 130 60 128 63 -9 8 -342 160 -758 346
l-407 181 -3 450 c-3 435 -4 452 -24 496 -30 64 -88 125 -148 157 l-51 27
-1220 2 c-1201 2 -1221 2 -1272 -18z m1582 -164 c30 -29 31 -45 6 -76 l-19
-24 -349 -3 c-387 -4 -415 0 -432 49 -9 27 -7 33 14 55 l24 24 366 0 366 0 24
-25z m865 -2390 l0 -1945 -1185 0 -1185 0 0 1945 0 1945 1185 0 1185 0 0
-1945z"/>
<path d="M4620 3970 l0 -1820 1050 0 1050 0 0 163 0 164 -627 281 -628 281 -3
825 c-1 454 1 826 4 826 4 0 285 -126 625 -280 340 -154 621 -280 624 -280 3
0 4 52 3 117 l-3 116 -540 243 c-297 134 -553 249 -569 257 -28 13 -14 20 543
268 l571 254 0 203 0 202 -1050 0 -1050 0 0 -1820z"/>
<path d="M8346 5898 c-19 -18 -36 -63 -75 -198 -28 -97 -51 -186 -51 -199 0
-27 17 -61 39 -78 27 -21 89 -16 114 10 29 29 132 384 123 421 -16 64 -100 88
-150 44z"/>
<path d="M8964 5279 c-87 -56 -168 -110 -179 -120 -30 -29 -27 -92 7 -126 47
-46 75 -38 254 77 87 56 164 110 171 119 16 21 16 91 0 112 -16 21 -51 39 -75
39 -10 0 -90 -46 -178 -101z"/>
<path d="M8939 4470 c-28 -27 -31 -36 -26 -72 10 -75 21 -79 244 -100 209 -19
243 -16 263 23 18 32 11 86 -13 115 -22 25 -32 27 -158 39 -309 30 -275 30
-310 -5z"/>
</g>
</svg>
