<?xml version="1.0" standalone="no"?>
<!DOCTYPE svg PUBLIC "-//W3C//DTD SVG 20010904//EN"
 "http://www.w3.org/TR/2001/REC-SVG-20010904/DTD/svg10.dtd">
<svg version="1.0" xmlns="http://www.w3.org/2000/svg"
 width="1280.000000pt" height="720.000000pt" viewBox="0 0 1280.000000 720.000000"
 preserveAspectRatio="xMidYMid meet">
<metadata>
Created by potrace 1.16, written by Peter Selinger 2001-2019
</metadata>
<g transform="translate(0.000000,720.000000) scale(0.100000,-0.100000)"
fill="#000000" stroke="none">
<path d="M4360 3850 l0 -2130 1220 0 1220 0 0 80 0 80 -1135 0 -1135 0 0 1660
0 1660 1810 0 1810 0 0 -1215 c0 -1151 1 -1215 18 -1215 9 0 44 8 77 18 l60
18 5 1587 5 1587 -1977 0 -1978 0 0 -2130z m3790 1740 l0 -220 -1810 0 -1810
0 0 220 0 220 1810 0 1810 0 0 -220z"/>
<path d="M7240 5590 l0 -80 80 0 80 0 0 80 0 80 -80 0 -80 0 0 -80z"/>
<path d="M7540 5590 l0 -80 85 0 85 0 0 80 0 80 -85 0 -85 0 0 -80z"/>
<path d="M7850 5590 l0 -80 80 0 80 0 0 80 0 80 -80 0 -80 0 0 -80z"/>
<path d="M4670 3925 l0 -1145 1670 0 1670 0 0 1145 0 1145 -1670 0 -1670 0 0
-1145z m3180 5 l0 -980 -1510 0 -1510 0 0 980 0 980 1510 0 1510 0 0 -980z"/>
<path d="M5800 4230 c0 -418 2 -500 14 -500 7 0 40 12 72 26 111 48 156 68
294 124 30 13 73 31 95 41 22 9 64 27 93 38 108 43 158 64 207 86 28 13 75 33
105 45 30 12 73 30 95 41 22 10 45 19 52 19 6 0 28 8 50 19 21 10 55 26 76 35
20 8 37 20 37 24 0 5 -17 16 -37 24 -21 9 -67 28 -103 43 -36 14 -74 30 -85
35 -11 5 -49 21 -85 35 -112 46 -184 77 -223 96 -22 11 -45 19 -52 19 -7 0
-30 8 -52 19 -21 10 -62 28 -90 40 -129 52 -160 65 -198 82 -22 9 -69 30 -105
44 -36 15 -84 35 -108 46 -23 10 -45 19 -47 19 -3 0 -5 -225 -5 -500z m310
190 c30 -13 73 -30 95 -40 41 -18 111 -47 200 -82 28 -12 74 -32 103 -47 l53
-26 -48 -22 c-26 -11 -77 -33 -113 -48 -36 -15 -79 -33 -97 -41 -17 -8 -34
-14 -38 -14 -4 0 -29 -9 -54 -21 -25 -11 -64 -29 -86 -39 -22 -10 -57 -24 -77
-30 -21 -6 -40 -16 -43 -21 -4 -5 -13 -9 -21 -9 -12 0 -14 39 -14 250 l0 250
43 -19 c23 -10 67 -29 97 -41z"/>
<path d="M5120 3480 l0 -80 -75 0 -75 0 0 -85 0 -85 75 0 75 0 0 -70 0 -70 85
0 85 0 0 70 0 70 1210 0 1210 0 0 85 0 85 -1210 0 -1210 0 0 80 0 80 -85 0
-85 0 0 -80z"/>
<path d="M8225 2650 c-33 -10 -78 -23 -100 -28 -22 -5 -62 -15 -90 -22 -27 -7
-84 -21 -125 -31 -263 -64 -402 -100 -501 -129 -55 -17 -96 -20 -267 -20
l-202 0 0 -389 0 -389 223 -4 c188 -4 233 -8 292 -26 39 -11 108 -30 155 -42
47 -12 121 -31 165 -42 44 -11 116 -29 160 -40 44 -11 121 -30 170 -43 115
-29 183 -45 195 -45 7 0 10 224 10 635 0 502 -3 635 -12 634 -7 0 -40 -9 -73
-19z m-75 -618 l0 -419 -57 13 c-32 6 -87 19 -123 29 -36 9 -100 25 -142 36
-43 10 -115 28 -160 39 -46 12 -116 30 -155 40 -40 11 -82 20 -93 20 -20 0
-20 4 -18 237 l3 237 70 19 c113 29 247 64 290 75 102 24 145 35 210 52 88 23
146 37 163 39 9 1 12 -89 12 -417z m-910 -2 l0 -220 -70 0 -70 0 0 220 0 220
70 0 70 0 0 -220z"/>
<path d="M8616 2506 c-25 -29 -46 -59 -46 -67 0 -8 18 -32 40 -53 22 -21 47
-51 55 -65 44 -80 68 -143 77 -201 12 -85 1 -214 -23 -264 -10 -22 -19 -44
-19 -48 0 -13 -53 -92 -67 -101 -7 -4 -13 -13 -13 -19 0 -5 -11 -19 -25 -30
-14 -11 -25 -26 -25 -34 0 -22 82 -114 101 -114 9 0 42 27 73 61 194 209 228
546 82 808 -29 53 -140 181 -156 181 -5 0 -29 -24 -54 -54z"/>
<path d="M8413 2265 c-49 -60 -51 -65 -34 -77 35 -25 71 -102 71 -152 0 -54
-29 -121 -67 -153 l-26 -21 53 -61 c29 -34 57 -61 61 -61 19 0 84 80 110 135
25 53 29 71 29 153 0 77 -4 103 -25 153 -14 32 -35 69 -46 82 -40 44 -64 67
-69 67 -3 0 -29 -29 -57 -65z"/>
</g>
</svg>
