<?xml version="1.0" standalone="no"?>
<!DOCTYPE svg PUBLIC "-//W3C//DTD SVG 20010904//EN"
 "http://www.w3.org/TR/2001/REC-SVG-20010904/DTD/svg10.dtd">
<svg version="1.0" xmlns="http://www.w3.org/2000/svg"
 width="1280.000000pt" height="720.000000pt" viewBox="0 0 1280.000000 720.000000"
 preserveAspectRatio="xMidYMid meet">
<metadata>
Created by potrace 1.16, written by Peter Selinger 2001-2019
</metadata>
<g transform="translate(0.000000,720.000000) scale(0.100000,-0.100000)"
fill="#000000" stroke="none">
<path d="M4972 6082 c-28 -18 -51 -44 -67 -76 l-25 -50 0 -855 1 -856 22 -39
c30 -51 85 -95 133 -107 22 -4 96 -9 167 -9 l127 0 0 75 0 75 -121 0 c-115 0
-154 8 -171 34 -4 6 -8 380 -8 832 0 693 2 823 14 840 14 19 42 19 1451 22
l1436 2 24 -26 25 -27 0 -812 0 -812 -25 -27 c-23 -25 -27 -26 -140 -26 l-115
0 0 -76 0 -76 143 4 c152 4 170 9 225 68 54 57 52 27 52 945 0 921 2 890 -52
948 -58 61 57 57 -1570 57 l-1483 0 -43 -28z"/>
<path d="M5642 5691 c-15 -12 -22 -30 -22 -54 0 -59 22 -67 175 -67 155 0 175
8 175 70 0 62 -20 70 -176 70 -113 0 -134 -2 -152 -19z"/>
<path d="M6115 5696 c-14 -10 -20 -26 -20 -56 0 -64 15 -70 172 -70 120 0 135
2 153 20 11 11 20 33 20 50 0 17 -9 39 -20 50 -18 18 -33 20 -153 20 -99 0
-138 -4 -152 -14z"/>
<path d="M6600 5703 c-42 -17 -52 -76 -20 -111 19 -20 30 -22 153 -22 157 0
177 8 177 70 0 62 -21 70 -170 69 -69 0 -132 -3 -140 -6z"/>
<path d="M5412 5431 c-16 -13 -22 -30 -22 -58 0 -66 15 -73 169 -73 127 0 133
1 156 25 28 27 31 46 13 78 -22 42 -38 46 -169 47 -109 0 -129 -3 -147 -19z"/>
<path d="M5888 5436 c-30 -22 -40 -63 -23 -95 8 -16 22 -31 30 -35 9 -3 74 -6
144 -6 146 0 161 7 161 74 0 65 -23 75 -170 75 -87 0 -130 -4 -142 -13z"/>
<path d="M6352 5431 c-16 -13 -22 -30 -22 -58 0 -67 15 -73 173 -73 135 0 136
0 156 26 28 35 26 69 -4 99 -23 24 -29 25 -153 25 -112 0 -132 -3 -150 -19z"/>
<path d="M6409 5071 c-113 -24 -219 -108 -275 -220 -36 -70 -37 -78 -37 -175
-1 -139 29 -216 117 -301 131 -127 322 -151 494 -62 28 15 52 31 52 35 0 5 11
15 25 22 14 7 25 19 25 27 0 7 4 13 8 13 5 0 19 19 32 43 68 119 80 247 33
364 -31 79 -33 81 -95 144 -71 73 -152 108 -257 114 -47 2 -102 1 -122 -4z
m221 -176 c56 -35 75 -56 105 -114 32 -64 34 -148 5 -214 -23 -52 -101 -125
-152 -144 -42 -15 -134 -15 -176 0 -47 17 -130 92 -149 135 -23 53 -23 177 1
221 23 43 85 111 101 111 7 0 18 6 25 14 29 35 179 30 240 -9z"/>
<path d="M5559 4484 c-28 -16 -56 -43 -75 -72 l-29 -47 -3 -240 c-3 -282 -2
-288 70 -293 76 -5 78 2 78 263 0 278 -6 265 129 265 89 0 99 2 119 23 29 31
29 77 -1 105 -21 20 -34 22 -133 21 -97 0 -114 -3 -155 -25z"/>
<path d="M7185 4485 c-32 -33 -32 -65 0 -99 23 -24 29 -26 117 -26 51 0 98 -4
104 -8 30 -19 34 -55 34 -273 0 -249 0 -248 72 -249 69 0 70 0 66 294 l-3 262
-32 40 c-52 65 -102 84 -226 84 -100 0 -107 -1 -132 -25z"/>
<path d="M6049 4315 c-90 -33 -186 -108 -214 -169 -42 -90 -45 -113 -45 -352
l0 -233 26 -20 c36 -28 66 -26 98 5 l26 27 0 225 c0 213 1 226 22 261 49 82
110 117 219 127 38 4 69 10 69 13 0 4 -13 14 -29 24 -15 9 -51 37 -79 62 -27
25 -52 45 -53 44 -2 0 -20 -6 -40 -14z"/>
<path d="M6880 4304 c-14 -14 -46 -42 -72 -61 -27 -19 -48 -38 -48 -42 0 -5
29 -11 64 -15 82 -8 124 -26 173 -73 61 -59 63 -69 63 -317 l0 -222 29 -28
c25 -24 36 -28 62 -22 57 11 58 19 59 271 0 240 -6 281 -47 355 -41 72 -134
147 -205 164 -14 3 -32 8 -40 11 -8 3 -25 -6 -38 -21z"/>
<path d="M5477 3756 c-10 -8 -20 -30 -24 -49 -5 -30 -1 -40 22 -61 35 -33 69
-33 102 0 21 21 24 32 20 61 -7 42 -31 62 -72 62 -16 0 -38 -6 -48 -13z"/>
<path d="M7458 3756 c-27 -20 -24 -93 5 -117 68 -57 153 35 101 109 -18 25
-77 30 -106 8z"/>
<path d="M5175 3390 c-13 -26 -14 -37 -4 -65 7 -19 21 -36 33 -39 32 -9 2589
-7 2602 2 5 4 16 21 23 38 11 27 10 37 -3 63 l-17 31 -1309 0 -1309 0 -16 -30z"/>
<path d="M4825 3046 c-163 -40 -248 -191 -200 -350 20 -67 68 -136 94 -136 6
0 11 -4 11 -9 0 -33 205 -56 267 -29 56 24 110 77 137 133 48 102 29 242 -44
315 -34 34 -94 67 -135 74 -22 4 -49 9 -60 11 -11 2 -42 -2 -70 -9z m106 -150
c49 -21 79 -66 79 -120 0 -26 -6 -51 -15 -60 -8 -8 -15 -19 -15 -24 0 -14 -59
-36 -96 -36 -47 0 -83 23 -105 66 -23 44 -24 70 -5 106 18 35 43 57 81 70 40
14 38 14 76 -2z"/>
<path d="M5881 3043 c-31 -6 -99 -49 -123 -77 -74 -85 -90 -209 -42 -311 28
-59 84 -112 141 -134 49 -20 173 -17 222 5 23 10 41 21 41 26 0 4 5 8 11 8 7
0 21 10 31 23 67 75 94 184 67 268 -26 83 -51 115 -122 161 -43 27 -59 32
-126 34 -42 1 -87 0 -100 -3z m139 -157 c32 -15 70 -72 70 -107 0 -37 -33 -92
-66 -110 -33 -17 -94 -18 -126 0 -62 33 -78 133 -30 187 45 51 89 60 152 30z"/>
<path d="M6948 3041 c-45 -15 -115 -69 -139 -108 -49 -79 -60 -152 -35 -234
26 -85 74 -138 161 -177 43 -20 171 -18 219 3 89 38 166 157 166 258 0 80 -61
183 -137 230 -40 25 -59 30 -127 33 -45 2 -93 0 -108 -5z m123 -143 c54 -18
89 -63 89 -115 0 -81 -44 -128 -120 -128 -50 0 -85 21 -110 62 -24 40 -25 74
-6 111 18 35 43 57 81 70 17 6 30 11 31 11 1 1 16 -4 35 -11z"/>
<path d="M8028 3044 c-14 -3 -32 -12 -38 -20 -7 -8 -17 -14 -22 -14 -15 0 -80
-70 -103 -110 -30 -52 -28 -189 4 -249 28 -54 69 -95 123 -122 32 -16 59 -21
122 -21 97 0 141 17 196 72 58 58 73 100 74 200 0 88 -12 127 -55 173 -10 12
-19 24 -19 29 0 4 -7 8 -15 8 -8 0 -15 3 -15 8 0 4 -15 15 -33 26 -32 18 -160
30 -219 20z m138 -154 c45 -22 74 -67 74 -115 0 -35 -29 -95 -45 -95 -7 0 -15
-5 -17 -11 -2 -7 -27 -12 -60 -12 -49 0 -60 4 -90 31 -30 29 -33 37 -33 86 0
61 24 96 80 121 41 18 43 18 91 -5z"/>
<path d="M4575 2355 c-67 -32 -98 -60 -131 -120 -28 -49 -29 -55 -32 -221 -4
-168 -3 -172 19 -193 27 -25 75 -27 104 -5 18 13 20 31 26 182 4 92 7 168 8
169 1 2 20 16 43 33 l41 30 240 0 239 0 39 -39 39 -39 0 -141 c0 -179 13 -211
86 -211 13 0 33 8 44 17 19 16 20 30 20 185 0 136 -3 174 -17 205 -30 67 -79
119 -138 147 l-56 26 -262 0 c-257 0 -263 -1 -312 -25z"/>
<path d="M5642 2353 c-29 -14 -68 -44 -86 -67 -60 -73 -66 -100 -66 -286 0
-149 2 -169 18 -183 10 -10 30 -17 44 -17 75 0 88 31 88 205 0 150 8 178 60
209 24 14 64 16 267 16 l238 0 40 -35 40 -35 5 -165 c5 -149 7 -166 25 -179
29 -22 77 -20 104 5 22 21 23 25 19 193 -3 166 -4 172 -32 221 -34 60 -64 88
-133 120 -51 25 -55 25 -315 24 -262 0 -263 0 -316 -26z"/>
<path d="M6729 2357 c-54 -26 -99 -60 -99 -76 0 -6 -3 -11 -8 -11 -9 0 -36
-52 -51 -99 -6 -19 -11 -100 -11 -181 0 -140 1 -147 23 -168 29 -28 76 -28
105 -2 21 19 22 30 22 159 0 159 11 197 63 230 32 20 48 21 270 21 l235 0 32
-26 c54 -46 60 -69 60 -224 0 -127 2 -142 20 -160 28 -28 81 -26 108 3 21 22
22 33 22 170 0 132 -2 153 -24 206 -31 76 -74 123 -142 155 -54 26 -56 26
-317 26 -250 -1 -264 -2 -308 -23z"/>
<path d="M7811 2361 c-55 -22 -125 -88 -147 -138 -14 -30 -18 -75 -22 -208 -4
-158 -2 -172 16 -192 13 -16 30 -23 55 -23 61 0 71 27 77 204 5 145 16 196 43
196 5 0 15 7 23 15 13 13 55 15 257 15 l242 0 40 -34 40 -34 3 -138 c1 -77 5
-149 8 -162 12 -56 82 -81 124 -45 19 16 20 30 20 184 0 193 -11 231 -84 303
-73 70 -104 76 -396 75 -220 0 -261 -3 -299 -18z"/>
</g>
</svg>
