<?xml version="1.0" standalone="no"?>
<!DOCTYPE svg PUBLIC "-//W3C//DTD SVG 20010904//EN"
 "http://www.w3.org/TR/2001/REC-SVG-20010904/DTD/svg10.dtd">
<svg version="1.0" xmlns="http://www.w3.org/2000/svg"
 width="1280.000000pt" height="720.000000pt" viewBox="0 0 1280.000000 720.000000"
 preserveAspectRatio="xMidYMid meet">
<metadata>
Created by potrace 1.16, written by Peter Selinger 2001-2019
</metadata>
<g transform="translate(0.000000,720.000000) scale(0.100000,-0.100000)"
fill="#000000" stroke="none">
<path d="M5770 6255 c-13 -14 -27 -25 -32 -25 -5 0 -14 -5 -21 -10 -7 -6 -30
-24 -52 -40 -22 -16 -45 -33 -50 -37 -6 -5 -33 -24 -60 -43 -28 -19 -51 -38
-53 -42 -2 -4 -9 -8 -15 -8 -22 0 -97 -77 -97 -99 0 -21 2 -21 253 -21 266 0
311 -6 377 -53 23 -16 96 -17 1147 -17 l1123 0 2 -1021 3 -1021 70 -23 c38
-13 71 -29 73 -34 2 -6 9 -11 15 -11 7 -1 30 -19 52 -40 43 -42 54 -41 75 10
7 17 16 30 20 30 4 0 13 14 20 31 7 17 18 36 24 42 6 7 22 32 35 57 13 25 33
56 43 69 17 23 18 74 18 1156 l0 1132 -23 21 -23 22 -1450 0 -1451 0 -23 -25z
m2620 -185 l-55 -50 -1299 0 c-940 0 -1297 3 -1289 11 6 6 35 28 64 50 l54 38
1290 0 1290 0 -55 -49z m177 -2049 c-8 -9 -17 -23 -20 -31 -4 -8 -18 -33 -32
-55 -13 -22 -33 -56 -44 -75 l-20 -35 -1 1036 c0 1008 0 1036 19 1055 11 10
39 37 63 59 l43 40 3 -989 c2 -820 0 -992 -11 -1005z"/>
<path d="M4153 5788 c-41 -7 -62 -19 -96 -51 -72 -71 -77 -90 -77 -294 0 -124
7 -245 24 -398 14 -121 32 -299 41 -395 21 -240 81 -845 111 -1135 9 -88 20
-207 24 -265 9 -116 21 -246 50 -512 18 -165 32 -228 51 -228 4 0 11 -9 14
-20 3 -11 12 -20 19 -20 31 0 35 -46 38 -390 l3 -345 25 -44 c14 -25 38 -58
54 -73 l29 -28 571 2 570 3 36 48 c55 73 60 109 60 469 l0 321 41 42 c51 52
66 93 79 220 5 55 18 192 30 305 11 113 25 255 31 315 6 61 14 160 19 220 4
61 15 175 23 255 15 137 29 279 77 765 11 116 30 296 41 400 23 211 36 544 25
647 -7 63 -11 71 -55 117 -27 28 -64 55 -87 62 -31 11 -210 14 -879 15 -505 1
-861 -2 -892 -8z m1726 -174 c31 -26 31 -26 31 -125 l0 -99 -885 0 -885 0 0
96 c0 92 1 97 29 125 l29 29 825 0 825 0 31 -26z m18 -426 c-3 -18 -11 -87
-17 -153 -23 -252 -40 -437 -60 -640 -53 -540 -62 -629 -77 -765 -8 -80 -19
-192 -23 -250 -7 -102 -25 -285 -55 -560 -8 -74 -15 -149 -15 -165 0 -17 -7
-41 -16 -53 l-15 -22 -592 0 -592 1 -16 22 c-11 15 -18 51 -21 102 -3 44 -13
152 -22 240 -9 88 -26 246 -36 350 -10 105 -27 262 -36 350 -9 88 -20 207 -24
265 -4 58 -13 152 -19 210 -10 98 -20 203 -71 725 -11 110 -23 239 -28 288
l-7 87 873 0 874 0 -5 -32z m-367 -3095 c0 -358 0 -358 -77 -394 -35 -17 -72
-18 -423 -18 -443 -1 -446 0 -494 81 l-26 45 0 301 0 302 510 0 510 0 0 -317z"/>
<path d="M4785 5081 c-199 -45 -345 -184 -396 -376 -53 -200 16 -420 172 -544
28 -23 56 -41 60 -41 22 0 5 -39 -37 -85 -62 -69 -64 -72 -64 -88 0 -8 -6 -20
-14 -26 -28 -23 -60 -151 -61 -241 0 -116 28 -205 98 -314 17 -26 97 -106 107
-106 4 0 13 -7 20 -16 33 -38 171 -84 276 -91 81 -5 101 -3 175 21 46 15 93
33 105 39 50 29 125 96 160 144 80 110 104 179 104 297 l0 92 36 35 c46 44 98
129 129 213 45 121 27 319 -38 419 -9 14 -17 29 -17 32 0 10 -117 135 -126
135 -3 0 -18 10 -34 22 -23 17 -30 30 -30 57 -1 34 -26 121 -43 149 -5 6 -14
23 -21 37 -14 28 -112 132 -142 152 -129 86 -277 116 -419 84z m265 -188 c67
-35 127 -89 152 -136 41 -77 45 -72 -51 -72 -86 0 -163 -20 -245 -62 -105 -54
-220 -190 -241 -285 -9 -39 -21 -32 -67 33 -46 67 -63 138 -54 236 9 93 35
147 103 216 46 46 61 57 73 57 6 0 23 8 37 17 59 39 216 37 293 -4z m197 -386
c8 -9 -27 -117 -37 -117 -5 0 -11 -8 -14 -17 -11 -35 -84 -101 -141 -127 -79
-38 -151 -52 -206 -40 -41 9 -44 11 -41 39 11 105 144 240 262 266 38 9 167 5
177 -4z m221 -174 c43 -70 59 -164 42 -244 -13 -58 -50 -142 -70 -154 -4 -3
-20 15 -34 39 -27 47 -112 128 -158 152 -15 8 -28 16 -28 17 0 1 26 30 58 63
54 58 86 109 113 182 12 32 12 32 30 13 10 -10 31 -41 47 -68z m-411 -305 c49
-12 101 -39 144 -73 27 -21 99 -112 99 -124 0 -12 -89 -31 -149 -31 -95 0
-178 35 -247 104 -36 36 -81 104 -72 110 2 1 21 7 43 13 56 15 128 15 182 1z
m-328 -179 c33 -48 110 -119 160 -147 80 -46 151 -62 266 -62 65 0 125 5 140
12 35 16 41 5 26 -55 -26 -103 -102 -199 -199 -248 -41 -21 -61 -24 -152 -24
-94 0 -110 3 -156 27 -67 35 -133 101 -167 165 -32 62 -45 165 -29 239 11 48
57 144 70 144 4 0 22 -23 41 -51z"/>
<path d="M6779 5255 c-25 -7 -61 -20 -80 -30 -47 -25 -122 -88 -138 -118 -11
-20 -23 -26 -68 -31 -173 -20 -331 -184 -354 -366 -19 -155 24 -293 119 -383
7 -6 21 -20 30 -29 9 -10 22 -18 29 -18 7 0 13 -4 13 -8 0 -5 10 -13 23 -19
93 -45 105 -48 203 -51 89 -3 107 -1 158 21 70 29 152 88 185 131 l25 32 45
-46 c85 -86 186 -130 301 -130 67 0 167 26 223 58 41 22 137 118 160 160 29
52 57 162 57 225 0 67 -26 170 -52 209 -10 14 -18 29 -18 33 0 17 -118 127
-159 148 -49 26 -161 57 -203 57 -18 0 -44 17 -83 55 -31 30 -73 62 -93 71
-103 44 -228 55 -323 29z m226 -171 c62 -29 73 -40 48 -48 -24 -8 -123 -100
-123 -114 0 -22 -17 -12 -54 28 -20 22 -40 40 -44 40 -5 0 -17 9 -26 19 -10
11 -29 22 -42 25 -33 9 -22 23 40 52 68 32 132 31 201 -2z m392 -186 c109 -62
156 -163 139 -300 -8 -65 -58 -137 -126 -183 -41 -27 -52 -30 -131 -30 -65 0
-95 5 -127 20 -23 11 -42 23 -42 26 0 4 12 15 28 24 124 80 210 250 200 395
-6 80 -2 83 59 48z m-664 -42 c64 -43 116 -171 101 -251 -6 -33 -9 -36 -33
-30 -107 27 -196 195 -165 311 5 20 7 20 37 5 18 -9 44 -25 60 -35z m-227
-214 c15 -34 31 -62 36 -62 4 0 8 -5 8 -12 0 -13 88 -98 101 -98 5 0 9 -4 9
-9 0 -5 16 -15 35 -22 32 -12 33 -14 17 -28 -23 -21 -110 -51 -147 -51 -31 0
-120 28 -144 45 -20 15 -64 58 -81 81 -20 25 -50 118 -50 155 0 82 71 204 139
238 l36 19 7 -97 c5 -75 13 -112 34 -159z m664 189 c0 -51 -18 -119 -37 -142
-7 -8 -13 -19 -13 -22 0 -4 -14 -19 -30 -34 -69 -64 -76 -66 -86 -27 -9 36 0
106 20 144 9 18 16 39 16 47 0 7 4 13 9 13 5 0 12 8 15 18 3 9 25 30 48 45 49
31 58 25 58 -42z"/>
<path d="M6616 3673 c-37 -10 -95 -55 -118 -92 -21 -33 -23 -49 -26 -223 l-4
-188 -65 0 c-74 0 -124 -19 -165 -62 l-28 -29 0 -733 c0 -556 3 -735 12 -744
9 -9 227 -12 920 -12 l908 0 0 -35 0 -36 300 3 300 3 42 43 43 42 3 723 2 723
-22 35 c-33 49 -98 79 -174 79 l-62 0 -4 183 c-4 177 -5 183 -31 222 -15 22
-44 54 -64 70 l-38 30 -855 1 c-470 1 -864 0 -874 -3z m214 -323 l0 -180 -106
0 -105 0 3 154 c3 141 5 157 23 174 30 27 42 30 118 31 l67 1 0 -180z m370 0
l0 -180 -100 0 -100 0 0 180 0 180 100 0 100 0 0 -180z m370 0 l0 -180 -100 0
-100 0 0 180 0 180 100 0 100 0 0 -180z m380 0 l0 -180 -105 0 -105 0 0 180 0
180 105 0 105 0 0 -180z m346 147 c23 -27 24 -34 24 -178 l0 -149 -105 0 -105
0 0 181 0 181 81 -4 c74 -3 83 -6 105 -31z m284 -1157 l0 -660 -1110 0 -1110
0 0 660 0 660 1110 0 1110 0 0 -660z"/>
<path d="M7301 2860 c-24 -11 -49 -20 -56 -20 -7 0 -15 -3 -17 -7 -1 -5 -22
-21 -44 -36 -23 -15 -56 -46 -73 -67 -28 -35 -37 -40 -72 -40 -36 0 -91 -19
-164 -57 -39 -21 -126 -108 -152 -154 -104 -181 -76 -391 72 -542 169 -173
482 -165 639 16 l39 45 48 -48 c27 -26 79 -62 116 -81 67 -33 70 -34 198 -34
126 0 132 1 192 32 85 43 126 78 172 143 83 119 104 269 56 404 -13 37 -31 76
-39 85 -9 10 -16 22 -16 28 0 6 -7 13 -15 17 -8 3 -15 11 -15 18 -1 15 -71 70
-127 100 -42 22 -150 48 -201 48 -25 0 -40 8 -63 35 -29 33 -112 95 -127 95
-4 0 -20 8 -37 17 -22 12 -62 18 -150 20 -104 3 -126 1 -164 -17z m251 -160
c71 -27 75 -38 25 -71 -23 -14 -57 -45 -76 -67 l-35 -41 -63 59 c-35 33 -75
63 -88 66 -43 11 -27 33 41 57 57 21 136 20 196 -3z m384 -178 c61 -27 102
-62 137 -116 30 -47 32 -56 32 -141 0 -81 -3 -95 -28 -137 -49 -82 -159 -148
-246 -148 -32 0 -123 31 -145 49 -20 17 -21 31 -2 31 19 0 120 101 152 152 39
61 67 188 60 266 -3 34 -4 62 -2 62 2 0 21 -8 42 -18z m-210 -110 c-8 -90 -62
-172 -144 -220 -22 -12 -22 -12 -22 75 0 72 4 93 20 113 11 14 20 30 20 36 0
13 79 89 100 96 23 8 33 -30 26 -100z m-718 36 c0 -104 52 -251 99 -281 7 -4
13 -13 13 -20 1 -14 82 -77 122 -94 15 -7 28 -17 28 -22 0 -6 -25 -22 -55 -36
-144 -65 -315 7 -373 159 -26 69 -28 116 -5 182 20 60 53 105 106 144 59 43
64 40 65 -32z m245 40 c46 -30 70 -57 100 -109 23 -40 27 -57 27 -127 0 -45
-2 -82 -5 -82 -7 0 -64 32 -97 54 -62 41 -116 171 -103 248 8 45 30 50 78 16z"/>
<path d="M6036 3570 c-3 -22 -9 -58 -12 -80 l-6 -40 156 0 156 0 0 30 c0 17 7
47 15 67 27 65 31 63 -144 63 l-159 0 -6 -40z"/>
</g>
</svg>
