<?xml version="1.0" standalone="no"?>
<!DOCTYPE svg PUBLIC "-//W3C//DTD SVG 20010904//EN"
 "http://www.w3.org/TR/2001/REC-SVG-20010904/DTD/svg10.dtd">
<svg version="1.0" xmlns="http://www.w3.org/2000/svg"
 width="1280.000000pt" height="720.000000pt" viewBox="0 0 1280.000000 720.000000"
 preserveAspectRatio="xMidYMid meet">
<metadata>
Created by potrace 1.16, written by Peter Selinger 2001-2019
</metadata>
<g transform="translate(0.000000,720.000000) scale(0.100000,-0.100000)"
fill="#000000" stroke="none">
<path d="M5287 6163 c-12 -11 -8 -50 6 -61 7 -6 44 -19 82 -30 70 -20 115 -34
235 -78 36 -13 71 -24 78 -24 6 0 40 -11 74 -23 35 -13 104 -36 153 -51 50
-15 125 -41 168 -57 43 -16 84 -29 90 -29 6 0 41 -11 77 -24 36 -13 106 -37
155 -52 50 -15 118 -38 153 -51 34 -12 68 -23 74 -23 7 0 42 -11 78 -24 94
-35 369 -123 408 -131 17 -4 32 -9 32 -12 0 -3 -22 -25 -49 -49 -52 -47 -88
-109 -98 -168 l-6 -36 -1181 -2 -1181 -3 -54 -24 c-65 -30 -99 -60 -140 -125
l-31 -50 0 -753 c0 -689 1 -754 16 -760 9 -3 24 -2 33 4 14 9 16 83 21 744 5
710 6 735 25 770 11 20 35 49 53 64 68 57 -5 55 1774 55 1610 0 1722 -2 1752
-31 14 -13 50 -11 64 3 26 26 13 47 -45 75 -57 28 -61 28 -280 31 -221 4 -223
4 -223 25 0 42 -59 145 -105 184 -42 35 -126 71 -169 72 -18 1 -66 15 -186 57
-36 12 -105 35 -155 50 -49 15 -118 38 -153 51 -34 12 -68 23 -74 23 -7 0 -42
11 -78 24 -36 14 -121 43 -190 64 -69 22 -147 48 -175 57 -145 50 -188 64
-270 90 -49 15 -119 38 -155 51 -36 13 -71 24 -78 24 -6 0 -40 11 -74 24 -35
12 -103 36 -153 51 -49 15 -125 41 -168 56 -77 29 -117 35 -130 22z m2083
-732 c67 -30 140 -104 140 -142 0 -9 3 -24 6 -33 5 -14 -18 -16 -216 -16
l-222 0 6 23 c3 12 6 29 6 37 0 16 59 85 92 109 52 39 130 48 188 22z"/>
<path d="M4677 4973 c-4 -3 -7 -593 -7 -1310 l0 -1303 278 2 277 3 3 29 c2 16
-2 32 -10 37 -7 5 -118 9 -245 9 l-233 0 0 1230 0 1230 1365 0 1365 0 2 -312
3 -313 29 -3 c16 -2 32 2 37 10 14 22 11 672 -3 686 -9 9 -341 12 -1433 12
-782 0 -1425 -3 -1428 -7z"/>
<path d="M8211 4827 c-8 -10 -11 -363 -13 -1243 -3 -959 -6 -1237 -16 -1266
-7 -20 -28 -52 -47 -71 -64 -64 -88 -67 -470 -67 -252 0 -344 -3 -353 -12 -17
-17 -17 -229 0 -246 8 -8 67 -12 200 -12 219 0 208 -6 208 114 l0 75 168 3
c154 3 171 5 217 28 67 32 117 86 150 159 13 29 15 189 15 1286 0 1133 -2
1253 -16 1259 -23 9 -30 8 -43 -7z m-561 -2782 l0 -55 -135 0 -135 0 0 55 0
55 135 0 135 0 0 -55z"/>
<path d="M7717 4244 c-4 -4 -7 -22 -7 -41 l0 -33 151 0 150 0 -3 38 -3 37
-141 3 c-77 1 -143 -1 -147 -4z"/>
<path d="M5940 4139 c-184 -29 -327 -80 -508 -179 -94 -52 -312 -250 -312
-284 0 -33 42 -82 162 -192 33 -30 195 -135 248 -161 177 -86 334 -123 545
-130 147 -5 170 -3 280 21 66 15 158 41 205 58 87 33 212 96 218 110 2 4 10 8
17 8 8 0 20 6 27 13 7 6 39 31 70 55 32 23 89 74 128 113 96 97 95 101 -26
218 -94 90 -127 116 -223 174 -95 57 -136 62 -136 14 0 -24 8 -33 55 -59 76
-42 143 -88 153 -104 4 -8 12 -14 17 -14 11 0 118 -99 130 -121 7 -12 1 -25
-24 -51 -49 -50 -134 -121 -192 -160 -69 -47 -236 -127 -297 -143 l-49 -13 23
23 c38 36 52 56 89 125 l34 65 1 140 c0 139 0 140 -33 205 -45 89 -70 121
-121 161 -25 19 -61 49 -80 67 -26 26 -48 36 -90 43 -68 11 -236 10 -311 -2z
m336 -106 c68 -34 127 -84 165 -140 61 -88 86 -239 54 -328 -8 -22 -15 -46
-15 -53 0 -19 -67 -110 -107 -145 -19 -18 -61 -45 -92 -62 -53 -29 -62 -30
-176 -30 -114 0 -123 1 -175 30 -64 35 -130 86 -130 100 0 6 -11 20 -24 32
-13 13 -35 55 -50 93 -43 116 -36 204 26 336 18 39 112 130 163 158 67 37 114
46 218 41 71 -3 98 -9 143 -32z m-532 -45 c-16 -18 -31 -35 -34 -38 -18 -19
-55 -103 -67 -154 -39 -164 2 -344 103 -447 l36 -36 -49 12 c-64 18 -169 66
-262 122 -84 51 -94 59 -195 156 l-71 67 68 65 c38 36 72 65 76 65 4 0 20 14
36 30 16 17 34 30 41 30 6 0 17 6 23 14 15 18 235 127 276 137 49 12 50 10 19
-23z"/>
<path d="M6005 3884 c-78 -43 -135 -132 -135 -214 0 -71 47 -159 105 -198 44
-29 55 -32 129 -32 72 0 86 3 123 28 52 34 75 64 98 124 34 90 1 197 -80 264
-46 37 -51 39 -129 42 -60 2 -89 -2 -111 -14z m174 -80 c35 -17 91 -98 91
-129 0 -29 -20 -85 -30 -85 -5 0 -12 -9 -15 -20 -7 -22 -81 -60 -117 -60 -41
0 -103 33 -131 68 -21 28 -27 46 -27 86 0 79 40 128 130 159 20 7 63 -1 99
-19z"/>
<path d="M7714 4056 c-3 -8 -4 -23 -2 -33 3 -16 16 -18 148 -18 l145 0 0 30 0
30 -143 3 c-118 2 -143 0 -148 -12z"/>
<path d="M7477 3943 c-4 -3 -7 -343 -7 -755 l0 -748 -949 0 c-1026 0 -977 3
-969 -52 l3 -23 984 -3 c719 -1 987 1 997 9 12 9 14 145 14 779 0 423 -3 775
-6 784 -6 16 -54 22 -67 9z"/>
<path d="M7704 3817 c-2 -7 -3 -62 -2 -123 l3 -109 149 -3 c113 -2 151 1 158
10 9 15 11 199 2 222 -5 14 -29 16 -155 16 -114 0 -151 -3 -155 -13z m246
-117 l0 -50 -90 0 -90 0 0 50 0 50 90 0 90 0 0 -50z"/>
<path d="M7770 3246 c-117 -62 -120 -256 -4 -311 106 -50 210 -18 255 80 23
49 24 93 3 144 -40 101 -154 140 -254 87z m173 -103 c33 -47 32 -76 -6 -116
-50 -54 -100 -58 -150 -11 -39 36 -39 106 0 146 24 25 34 29 77 26 46 -3 53
-6 79 -45z"/>
<path d="M4410 2754 c0 -493 -3 -472 67 -553 19 -23 58 -54 87 -69 49 -26 59
-27 224 -30 l172 -4 0 -82 c0 -50 5 -87 12 -94 17 -17 369 -17 386 0 7 7 12
44 12 95 l0 83 808 2 807 3 0 35 0 35 -1175 5 c-904 4 -1181 8 -1203 17 -42
19 -92 73 -110 121 -15 37 -17 93 -17 446 0 223 -3 411 -6 420 -4 10 -18 16
-35 16 l-29 0 0 -446z m880 -709 l0 -55 -130 0 -130 0 0 55 0 55 130 0 130 0
0 -55z"/>
<path d="M5230 3000 c-8 -14 -8 -26 0 -40 11 -20 21 -20 879 -20 860 0 869 0
874 20 3 11 3 29 0 40 -5 20 -14 20 -874 20 -858 0 -868 0 -879 -20z"/>
<path d="M7762 2823 c-138 -83 -91 -304 72 -328 44 -7 114 14 150 44 25 22 56
95 56 134 0 42 -45 137 -65 137 -8 0 -15 4 -15 8 0 16 -51 32 -103 32 -38 -1
-64 -8 -95 -27z m170 -80 c14 -16 29 -38 32 -49 13 -42 -28 -105 -79 -124 -29
-11 -49 -5 -92 27 -29 21 -33 30 -33 70 0 67 36 103 100 103 38 0 51 -5 72
-27z"/>
<path d="M5233 2813 c-16 -6 -17 -35 -1 -51 9 -9 217 -12 874 -12 927 0 895
-2 879 50 -6 20 -8 20 -873 19 -477 0 -873 -3 -879 -6z"/>
<path d="M4480 1796 c-6 -8 -10 -23 -8 -33 3 -17 30 -18 466 -21 l463 -2 -3
32 -3 33 -451 3 c-386 2 -453 0 -464 -12z"/>
<path d="M6114 1796 c-3 -8 -4 -23 -2 -33 3 -17 44 -18 938 -18 l935 0 0 30 0
30 -933 3 c-806 2 -933 0 -938 -12z"/>
<path d="M8106 1792 c-4 -11 -4 -27 0 -36 6 -15 23 -16 148 -14 l141 3 0 30 0
30 -142 3 c-131 2 -142 1 -147 -16z"/>
<path d="M4579 1634 c-9 -11 -10 -20 -2 -32 9 -16 110 -17 1344 -17 l1334 0 0
30 0 30 -1331 3 c-1206 2 -1333 1 -1345 -14z"/>
</g>
</svg>
