<?xml version="1.0" standalone="no"?>
<!DOCTYPE svg PUBLIC "-//W3C//DTD SVG 20010904//EN"
 "http://www.w3.org/TR/2001/REC-SVG-20010904/DTD/svg10.dtd">
<svg version="1.0" xmlns="http://www.w3.org/2000/svg"
 width="1280.000000pt" height="720.000000pt" viewBox="0 0 1280.000000 720.000000"
 preserveAspectRatio="xMidYMid meet">
<metadata>
Created by potrace 1.16, written by Peter Selinger 2001-2019
</metadata>
<g transform="translate(0.000000,720.000000) scale(0.100000,-0.100000)"
fill="#000000" stroke="none">
<path d="M8254 5516 c-112 -52 -178 -158 -178 -286 0 -328 440 -429 592 -136
35 69 38 197 6 267 -31 67 -78 114 -146 149 -53 26 -72 30 -142 30 -64 0 -92
-5 -132 -24z"/>
<path d="M4637 5230 c-93 -12 -157 -26 -259 -57 l-88 -26 0 -144 c0 -169 -6
-163 121 -104 317 149 614 93 584 -108 -5 -36 -16 -55 -49 -86 -55 -53 -98
-66 -238 -72 l-118 -5 0 -114 0 -114 53 0 c104 -1 241 -20 284 -41 60 -29 93
-87 93 -164 0 -154 -111 -238 -315 -238 -121 0 -195 18 -324 79 -139 65 -131
71 -131 -100 l0 -144 63 -21 c230 -75 480 -90 670 -41 248 63 388 239 375 471
-8 133 -71 226 -193 283 -27 13 -68 28 -90 32 l-40 7 36 12 c106 37 181 104
225 198 24 53 26 67 22 150 -3 70 -10 103 -27 135 -47 91 -144 158 -276 192
-89 23 -278 33 -378 20z"/>
<path d="M6225 5229 c-323 -43 -526 -226 -608 -547 -19 -75 -22 -114 -22 -287
0 -179 2 -208 23 -280 59 -204 180 -335 360 -388 93 -27 301 -29 387 -3 265
80 415 312 378 583 -15 111 -46 183 -105 248 -92 101 -200 146 -358 147 -108
1 -177 -15 -282 -67 l-68 -33 0 23 c0 13 8 50 19 84 52 166 160 257 334 281
86 12 201 1 263 -25 75 -31 75 -31 72 117 l-3 133 -40 7 c-72 13 -279 17 -350
7z m65 -787 c86 -42 120 -108 120 -234 0 -159 -76 -259 -208 -275 -67 -8 -127
12 -177 58 -72 66 -105 175 -105 347 l0 83 47 20 c106 45 232 46 323 1z"/>
<path d="M7379 5230 c-334 -53 -473 -307 -456 -829 7 -206 28 -314 83 -429 92
-191 277 -283 539 -268 292 16 443 148 511 445 21 91 30 420 15 536 -41 310
-156 470 -382 531 -68 18 -237 26 -310 14z m199 -245 c75 -32 120 -101 149
-227 21 -93 24 -450 4 -547 -37 -187 -109 -271 -231 -271 -124 0 -194 85 -231
280 -16 84 -17 404 -1 497 15 92 46 175 80 215 52 62 152 85 230 53z"/>
<path d="M5990 3564 c-30 -2 -136 -8 -235 -14 -770 -45 -1392 -168 -1666 -330
-152 -90 -219 -182 -219 -300 0 -151 116 -269 364 -371 311 -128 865 -223
1523 -261 l213 -12 -114 -115 c-121 -123 -136 -151 -121 -220 18 -83 126 -138
198 -99 40 21 456 430 472 464 19 40 19 110 1 147 -16 28 -368 448 -405 481
-30 27 -118 33 -160 12 -43 -23 -71 -71 -71 -124 0 -55 8 -69 93 -171 l71 -84
-125 7 c-470 26 -894 84 -1215 166 -265 68 -374 121 -374 185 0 40 37 68 135
104 313 113 709 182 1345 233 99 8 354 13 705 13 544 0 652 -5 1015 -41 516
-51 1062 -175 1147 -260 47 -47 23 -106 -54 -140 -306 -131 -898 -230 -1591
-264 -155 -7 -222 -15 -243 -26 -71 -36 -94 -153 -42 -215 48 -56 69 -60 280
-49 1176 61 1880 248 2003 532 81 186 -40 354 -342 477 -303 124 -759 205
-1438 257 -190 14 -1011 27 -1150 18z"/>
</g>
</svg>
